PathFileType	4	(X/Y/Z)	C:/Users/beibeiliu/ov580/test_trc/capture2\sequence.14_training_dense_left.trc
DataRate	CameraRate	NumFrames	NumMarkers	Units	OrigDataRate	OrigDataStartFrame	OrigNumFrames
120	120	8	19	mm	120	251	400
Frame#	Time	ThumbCMC			ThumbMCP			ThumbIP			ThumbTip			IndexMCP			IndexPIP			IndexTip			MiddleMCP			MiddlePIP			MiddleTip			RingMCP			RingPIP			RingTip			PinkyMCP			PinkyPIP			PinkyTip			BackHand1			BackHand2			BackHand3	
		X0	Y0	Z0	X1	Y1	Z1	X2	Y2	Z2	X3	Y3	Z3	X4	Y4	Z4	X5	Y5	Z5	X6	Y6	Z6	X7	Y7	Z7	X8	Y8	Z8	X9	Y9	Z9	X10	Y10	Z10	X11	Y11	Z11	X12	Y12	Z12	X13	Y13	Z13	X14	Y14	Z14	X15	Y15	Z15	X16	Y16	Z16	X17	Y17	Z17	X18	Y18	Z18	
250	2.08333	-84.557	80.7883	-30.1709	-73.5096	70.9087	-63.8833	-74.4573	78.3481	-91.8256	-89.066	86.8431	-107.533	-71.6424	136.341	-72.3198	-68.4255	143.703	-94.8081	-60.5348	156.056	-120.434	-93.3567	120.392	-94.5486	-85.8984	92.4395	-101.836	-94.8234	81.0654	-69.667	-110.411	113.477	-93.8376	-105.444	82.7768	-102.575	-103.379	70.5043	-72.4584	-137.122	120.096	-86.9534	-137.757	124.613	-109.316	-140.731	136.936	-126.729	-130.047	118.5	-39.2863	-136.518	100.488	-14.9868	-105.845	109.35	-18.3852	
251	2.09167	-79.8794	75.7476	-27.7536	-73.1135	67.3513	-61.8113	-74.626	75.8151	-90.7981	-92.2746	88.6946	-106.693	-70.6264	134.696	-74.6379	-63.0359	141.692	-96.2252	-57.37	151.224	-116.395	-89.6441	119.176	-91.756	-87.5352	92.0348	-103.146	-93.0308	80.6355	-69.0451	-109.1	112.359	-96.6623	-101.561	83.4314	-102.423	-104.291	69.8491	-70.5429	-134.796	119.148	-85.0826	-135.545	125.947	-106.904	-136.727	140.474	-128.238	-126.296	119.218	-39.7252	-134.858	101.193	-12.858	-104.943	110.709	-18.5671	
252	2.1	-81.376	75.0768	-27.7999	-70.3665	68.9591	-65.1972	-71.8829	74.0308	-90.2758	-89.61	86.3531	-108.812	-67.815	131.583	-70.9454	-61.2602	140.955	-97.9519	-55.0851	152.292	-118.174	-89.1429	118.417	-93.2473	-84.5125	91.0249	-102.774	-90.8077	80.7811	-65.039	-107.5	112.527	-94.6076	-101.72	85.329	-103.227	-105.129	68.5689	-73.1557	-136.231	121.287	-88.0791	-130.072	127.249	-109.495	-131.769	139.797	-127.727	-124.668	116.308	-38.0972	-132.186	101.58	-12.3787	-100.095	109.508	-17.2828	
253	2.10833	-76.4949	70.696	-26.6575	-72.1944	66.5419	-62.6846	-69.8511	73.2199	-91.4817	-86.8121	86.6003	-110.513	-67.8416	132.485	-73.7444	-56.9792	138.074	-92.3162	-49.6598	149.401	-113.361	-85.7688	117.373	-92.2089	-82.1734	91.1652	-103.43	-90.406	79.6419	-68.0118	-106.361	111.086	-96.4846	-102.778	82.5926	-102.271	-103.334	69.5648	-68.8647	-132.649	121.715	-86.4197	-128.871	127.296	-108.577	-133.145	139.848	-124.168	-123.173	118.818	-39.4041	-131.097	102.828	-14.186	-94.6562	106.794	-18.3135	
254	2.11667	-76.868	73.4138	-30.0056	-68.8627	64.3277	-64.4916	-69.4481	71.1653	-89.806	-87.7239	87.7184	-109.089	-62.2324	128.314	-70.1734	-52.4241	136.43	-92.4079	-46.1369	148.223	-116.14	-86.7234	118.422	-87.7831	-82.1153	89.9495	-103.025	-88.6605	79.3782	-63.9686	-104.874	112.504	-92.8429	-98.0677	81.0479	-100.218	-102.382	69.0692	-68.8249	-131.711	120.445	-85.1995	-125.89	125.674	-105.055	-127.534	139.364	-125.499	-118.93	117.433	-37.5834	-127.133	99.4713	-13.3182	-93.6954	104.1	-15.5632	
255	2.125	-77.0173	71.5315	-29.67	-69.3655	62.6415	-61.5258	-67.5024	69.1615	-89.4687	-85.7197	85.9251	-107.448	-61.2077	127.152	-68.92	-52.399	136.504	-94.0849	-47.6483	146.309	-113.317	-79.431	115.533	-88.5168	-82.6353	89.9641	-102.667	-89.761	77.8052	-66.7436	-100.268	111.801	-91.0107	-99.2969	79.7675	-100.33	-98.3771	67.5012	-67.9589	-126.578	122.005	-85.7795	-127.992	124.232	-104.344	-127.658	138.405	-126.431	-116.903	115.394	-37.0757	-125.339	98.9159	-11.7996	-95.1533	103.309	-14.63	
256	2.13333	-74.0844	67.9042	-25.6233	-66.0487	60.9406	-60.8372	-67.4102	70.9164	-86.6916	-81.4557	85.3871	-108.427	-58.8328	124.388	-67.032	-46.7643	135.01	-92.8404	-44.234	146.236	-114.265	-83.9933	115.303	-87.6312	-81.3716	87.5385	-102.709	-87.8617	74.1597	-68.1938	-98.2107	108.916	-93.1738	-97.501	80.2803	-100.955	-98.582	67.0428	-69.9874	-126.225	120.311	-83.3827	-120.81	125.623	-102.845	-123.087	137.026	-122.707	-116.98	114.401	-37.6007	-124.948	99.3539	-10.5188	-95.0544	103.181	-14.3687	
257	2.14167	-71.6353	66.664	-23.6847	-61.3931	63.2486	-58.5825	-63.0179	71.2871	-81.9684	-80.2654	85.04	-100.815	-55.8123	126.871	-69.3284	-50.4963	135.651	-93.1404	-45.8452	145.573	-111.675	-76.7591	114.579	-87.8191	-81.1077	83.8621	-101.261	-85.1542	70.511	-69.0776	-99.5702	110.919	-89.3484	-96.8019	80.9482	-101.953	-95.0985	66.0779	-71.8854	-124.413	118.699	-83.2062	-120.267	125.163	-104.962	-123.338	139.273	-122.698	-115.248	113.71	-38.2685	-125.523	98.6537	-9.9253	-92.2499	103.926	-18.9277	
